<svg width="58" height="10" viewBox="0 0 58 10" fill="none" xmlns="http://www.w3.org/2000/svg">
<g clip-path="url(#clip0_57_10)">
<path d="M1.54667 5.83331H0.773333C0.346233 5.83331 0 6.20641 0 6.66665V8.33331C0 8.79356 0.346233 9.16665 0.773333 9.16665H1.54667C1.97376 9.16665 2.32 8.79356 2.32 8.33331V6.66665C2.32 6.20641 1.97376 5.83331 1.54667 5.83331Z" fill="black"/>
<path d="M5.4133 4.16669H4.63997C4.21287 4.16669 3.86664 4.53979 3.86664 5.00002V8.33335C3.86664 8.7936 4.21287 9.16669 4.63997 9.16669H5.4133C5.8404 9.16669 6.18664 8.7936 6.18664 8.33335V5.00002C6.18664 4.53979 5.8404 4.16669 5.4133 4.16669Z" fill="black"/>
<path d="M9.28 2.5H8.50667C8.07956 2.5 7.73334 2.8731 7.73334 3.33333V8.33333C7.73334 8.79358 8.07956 9.16667 8.50667 9.16667H9.28C9.70712 9.16667 10.0533 8.79358 10.0533 8.33333V3.33333C10.0533 2.8731 9.70712 2.5 9.28 2.5Z" fill="black"/>
<path d="M13.1466 0.833313H12.3733C11.9462 0.833313 11.6 1.20641 11.6 1.66665V8.33331C11.6 8.79356 11.9462 9.16665 12.3733 9.16665H13.1466C13.5738 9.16665 13.92 8.79356 13.92 8.33331V1.66665C13.92 1.20641 13.5738 0.833313 13.1466 0.833313Z" fill="black"/>
<mask id="mask0_57_10" style="mask-type:luminance" maskUnits="userSpaceOnUse" x="20" y="0" width="13" height="10">
<path d="M32.8667 0.158691H20.4933V9.84119H32.8667V0.158691Z" fill="white"/>
</mask>
<g mask="url(#mask0_57_10)">
<path d="M26.673 9.84109C26.7112 9.84392 26.7495 9.838 26.7854 9.82358C26.8213 9.80925 26.8539 9.78692 26.8811 9.75792C26.9399 9.70042 28.249 8.28198 28.546 7.99948C28.5836 7.93782 28.6065 7.86705 28.6126 7.79358C28.603 7.71253 28.5662 7.63811 28.509 7.58444C27.977 7.15369 27.3296 6.92078 26.6642 6.92078C25.9988 6.92078 25.3514 7.15369 24.8194 7.58444C24.7769 7.64554 24.7501 7.7177 24.742 7.79358C24.737 7.83219 24.7416 7.87159 24.7552 7.90772C24.7688 7.94384 24.7909 7.97547 24.8194 7.99948C24.8898 8.08281 26.431 9.69042 26.5045 9.75792C26.5779 9.82542 26.5795 9.84109 26.673 9.84109Z" fill="black"/>
<path d="M22.8134 5.40613C22.8192 5.47984 22.849 5.54894 22.8976 5.60114L23.7908 6.68451C23.8381 6.73263 23.9006 6.75938 23.9656 6.75938C24.0306 6.75938 24.0932 6.73263 24.1405 6.68451C24.8138 5.94545 25.7313 5.52388 26.6924 5.51203C27.652 5.53101 28.5673 5.95148 29.2444 6.68451C29.2915 6.73143 29.3532 6.75745 29.4173 6.75745C29.4813 6.75745 29.5431 6.73143 29.5902 6.68451L30.4887 5.60114C30.5284 5.54482 30.5513 5.47681 30.5544 5.40613C30.5582 5.36961 30.5543 5.33264 30.5429 5.29799C30.5315 5.26336 30.513 5.23196 30.4887 5.20614C30.0043 4.64424 29.4176 4.19609 28.7652 3.88961C28.1129 3.58313 27.4088 3.42493 26.6971 3.42493C25.9854 3.42493 25.2813 3.58313 24.6289 3.88961C23.9764 4.19609 23.3898 4.64424 22.9054 5.20614C22.842 5.30364 22.8134 5.29529 22.8134 5.40613Z" fill="black"/>
<path d="M20.5681 2.82788C20.5194 2.91121 20.4908 2.93119 20.4908 3.03285C20.4977 3.1068 20.5246 3.1769 20.5681 3.23448C20.5681 3.23448 21.3159 4.10456 21.5069 4.2554C21.5587 4.2981 21.622 4.3212 21.6872 4.3212C21.7523 4.3212 21.8156 4.2981 21.8673 4.2554C23.1629 2.91192 24.891 2.16138 26.689 2.16138C28.487 2.16138 30.2153 2.91192 31.5108 4.2554C31.5108 4.2554 31.7134 4.41373 31.8588 4.2554C32.0042 4.09706 32.7868 3.23448 32.7868 3.23448C32.8307 3.1771 32.8577 3.1069 32.8642 3.03285C32.8677 2.99449 32.8624 2.95576 32.8489 2.92005C32.8355 2.88433 32.8141 2.85272 32.7868 2.82788C31.1495 1.1167 28.9583 0.159729 26.6775 0.159729C24.3966 0.159729 22.2054 1.1167 20.5681 2.82788Z" fill="black"/>
</g>
<mask id="mask1_57_10" style="mask-type:luminance" maskUnits="userSpaceOnUse" x="39" y="0" width="19" height="10">
<path d="M58 0H39.44V10H58V0Z" fill="white"/>
</mask>
<g mask="url(#mask1_57_10)">
<path opacity="0.4" d="M41.6549 0.416667C41.154 0.429996 40.6784 0.656765 40.3325 1.04727C39.9865 1.43779 39.7982 1.96019 39.809 2.5V7.5C39.7982 8.03967 39.9863 8.56192 40.3322 8.95242C40.6781 9.34292 41.1534 9.56975 41.6542 9.58333H53.4653C53.9662 9.57 54.4418 9.34325 54.7878 8.95275C55.1338 8.56225 55.3221 8.03981 55.3112 7.5V2.5C55.3221 1.96019 55.1338 1.43779 54.7878 1.04727C54.4418 0.656765 53.9662 0.429996 53.4653 0.416667H41.6549ZM41.6549 0H53.4653C54.0665 0.0152945 54.6376 0.287212 55.0529 0.755993C55.4682 1.22477 55.6938 1.85207 55.6801 2.5V7.5C55.6938 8.14793 55.4682 8.77525 55.0529 9.244C54.6376 9.71275 54.0665 9.98467 53.4653 10H41.6549C41.0537 9.98467 40.4826 9.71275 40.0674 9.244C39.652 8.77525 39.4264 8.14793 39.4401 7.5V2.5C39.4264 1.85207 39.652 1.22477 40.0674 0.755993C40.4826 0.287212 41.0537 0.0152945 41.6549 0Z" fill="black"/>
<path d="M53.36 1.66669H41.76C41.3329 1.66669 40.9867 2.03978 40.9867 2.50002V7.50002C40.9867 7.96026 41.3329 8.33335 41.76 8.33335H53.36C53.7871 8.33335 54.1334 7.96026 54.1334 7.50002V2.50002C54.1334 2.03978 53.7871 1.66669 53.36 1.66669Z" fill="black"/>
<path opacity="0.4" d="M56.4534 3.33331C56.8635 3.33331 57.2569 3.5089 57.547 3.82147C57.8371 4.13403 58 4.55795 58 4.99998C58 5.442 57.8371 5.86593 57.547 6.17849C57.2569 6.49105 56.8635 6.66665 56.4534 6.66665V3.33331Z" fill="black"/>
</g>
</g>
<defs>
<clipPath id="clip0_57_10">
<rect width="58" height="10" fill="white"/>
</clipPath>
</defs>
</svg>
