<svg width="249" height="13" viewBox="0 0 249 13" fill="none" xmlns="http://www.w3.org/2000/svg">
<g clip-path="url(#clip0_57_33)">
<path d="M192.547 8.83331H191.773C191.346 8.83331 191 9.20641 191 9.66665V11.3333C191 11.7936 191.346 12.1666 191.773 12.1666H192.547C192.974 12.1666 193.32 11.7936 193.32 11.3333V9.66665C193.32 9.20641 192.974 8.83331 192.547 8.83331Z" fill="black"/>
<path d="M196.413 7.16669H195.64C195.213 7.16669 194.867 7.53979 194.867 8.00002V11.3334C194.867 11.7936 195.213 12.1667 195.64 12.1667H196.413C196.84 12.1667 197.187 11.7936 197.187 11.3334V8.00002C197.187 7.53979 196.84 7.16669 196.413 7.16669Z" fill="black"/>
<path d="M200.28 5.5H199.507C199.08 5.5 198.733 5.8731 198.733 6.33333V11.3333C198.733 11.7936 199.08 12.1667 199.507 12.1667H200.28C200.707 12.1667 201.053 11.7936 201.053 11.3333V6.33333C201.053 5.8731 200.707 5.5 200.28 5.5Z" fill="black"/>
<path d="M204.147 3.83331H203.373C202.946 3.83331 202.6 4.20641 202.6 4.66665V11.3333C202.6 11.7936 202.946 12.1666 203.373 12.1666H204.147C204.574 12.1666 204.92 11.7936 204.92 11.3333V4.66665C204.92 4.20641 204.574 3.83331 204.147 3.83331Z" fill="black"/>
<mask id="mask0_57_33" style="mask-type:luminance" maskUnits="userSpaceOnUse" x="211" y="3" width="13" height="10">
<path d="M223.867 3.15869H211.493V12.8412H223.867V3.15869Z" fill="white"/>
</mask>
<g mask="url(#mask0_57_33)">
<path d="M217.673 12.8411C217.711 12.8439 217.75 12.838 217.785 12.8236C217.821 12.8093 217.854 12.7869 217.881 12.7579C217.94 12.7004 219.249 11.282 219.546 10.9995C219.584 10.9378 219.607 10.8671 219.613 10.7936C219.603 10.7125 219.566 10.6381 219.509 10.5844C218.977 10.1537 218.33 9.92078 217.664 9.92078C216.999 9.92078 216.351 10.1537 215.819 10.5844C215.777 10.6455 215.75 10.7177 215.742 10.7936C215.737 10.8322 215.742 10.8716 215.755 10.9077C215.769 10.9438 215.791 10.9755 215.819 10.9995C215.89 11.0828 217.431 12.6904 217.504 12.7579C217.578 12.8254 217.579 12.8411 217.673 12.8411Z" fill="black"/>
<path d="M213.813 8.40613C213.819 8.47984 213.849 8.54894 213.898 8.60114L214.791 9.68451C214.838 9.73263 214.901 9.75938 214.966 9.75938C215.031 9.75938 215.093 9.73263 215.14 9.68451C215.814 8.94545 216.731 8.52388 217.692 8.51203C218.652 8.53101 219.567 8.95148 220.244 9.68451C220.291 9.73143 220.353 9.75745 220.417 9.75745C220.481 9.75745 220.543 9.73143 220.59 9.68451L221.489 8.60114C221.528 8.54482 221.551 8.47681 221.554 8.40613C221.558 8.36961 221.554 8.33264 221.543 8.29799C221.532 8.26336 221.513 8.23196 221.489 8.20614C221.004 7.64424 220.418 7.19609 219.765 6.88961C219.113 6.58313 218.409 6.42493 217.697 6.42493C216.985 6.42493 216.281 6.58313 215.629 6.88961C214.976 7.19609 214.39 7.64424 213.905 8.20614C213.842 8.30364 213.813 8.29529 213.813 8.40613Z" fill="black"/>
<path d="M211.568 5.82788C211.519 5.91121 211.491 5.93119 211.491 6.03285C211.498 6.1068 211.525 6.1769 211.568 6.23448C211.568 6.23448 212.316 7.10456 212.507 7.2554C212.559 7.2981 212.622 7.3212 212.687 7.3212C212.752 7.3212 212.816 7.2981 212.867 7.2554C214.163 5.91192 215.891 5.16138 217.689 5.16138C219.487 5.16138 221.215 5.91192 222.511 7.2554C222.511 7.2554 222.713 7.41373 222.859 7.2554C223.004 7.09706 223.787 6.23448 223.787 6.23448C223.831 6.1771 223.858 6.1069 223.864 6.03285C223.868 5.99449 223.862 5.95576 223.849 5.92005C223.835 5.88433 223.814 5.85272 223.787 5.82788C222.149 4.1167 219.958 3.15973 217.678 3.15973C215.397 3.15973 213.205 4.1167 211.568 5.82788Z" fill="black"/>
</g>
<mask id="mask1_57_33" style="mask-type:luminance" maskUnits="userSpaceOnUse" x="230" y="3" width="19" height="10">
<path d="M249 3H230.44V13H249V3Z" fill="white"/>
</mask>
<g mask="url(#mask1_57_33)">
<path opacity="0.4" d="M232.655 3.41667C232.154 3.43 231.678 3.65676 231.332 4.04727C230.986 4.43779 230.798 4.96019 230.809 5.5V10.5C230.798 11.0397 230.986 11.5619 231.332 11.9524C231.678 12.3429 232.153 12.5697 232.654 12.5833H244.465C244.966 12.57 245.442 12.3433 245.788 11.9528C246.134 11.5623 246.322 11.0398 246.311 10.5V5.5C246.322 4.96019 246.134 4.43779 245.788 4.04727C245.442 3.65676 244.966 3.43 244.465 3.41667H232.655ZM232.655 3H244.465C245.067 3.01529 245.638 3.28721 246.053 3.75599C246.468 4.22477 246.694 4.85207 246.68 5.5V10.5C246.694 11.1479 246.468 11.7752 246.053 12.244C245.638 12.7127 245.067 12.9847 244.465 13H232.655C232.054 12.9847 231.483 12.7127 231.067 12.244C230.652 11.7752 230.426 11.1479 230.44 10.5V5.5C230.426 4.85207 230.652 4.22477 231.067 3.75599C231.483 3.28721 232.054 3.01529 232.655 3Z" fill="black"/>
<path d="M244.36 4.66669H232.76C232.333 4.66669 231.987 5.03978 231.987 5.50002V10.5C231.987 10.9603 232.333 11.3334 232.76 11.3334H244.36C244.787 11.3334 245.133 10.9603 245.133 10.5V5.50002C245.133 5.03978 244.787 4.66669 244.36 4.66669Z" fill="black"/>
<path opacity="0.4" d="M247.453 6.33331C247.864 6.33331 248.257 6.5089 248.547 6.82147C248.837 7.13403 249 7.55795 249 7.99998C249 8.442 248.837 8.86593 248.547 9.17849C248.257 9.49105 247.864 9.66665 247.453 9.66665V6.33331Z" fill="black"/>
</g>
</g>
<path d="M3.09077 10.0823C1.75799 10.0823 0.726003 9.27723 0.50301 8.08016H1.66983C1.84615 8.69697 2.4166 9.10999 3.10633 9.10999C4.27315 9.10999 4.95769 8.02265 4.95769 6.11986C4.95769 6.11986 4.9525 6.11986 4.94731 6.11986H4.94213H4.93694C4.63616 6.86216 3.84791 7.35354 2.88333 7.35354C1.4624 7.35354 0.399292 6.29237 0.399292 4.86004C0.399292 3.34929 1.55056 2.25153 3.13226 2.25153C4.24203 2.25153 5.134 2.82132 5.61629 3.83545C5.92226 4.43661 6.07784 5.17891 6.07784 6.06235C6.07784 8.58724 4.96806 10.0823 3.09077 10.0823ZM3.13226 6.39691C4.05016 6.39691 4.73469 5.73303 4.73469 4.84435C4.73469 3.95046 4.03979 3.24997 3.14781 3.24997C2.25584 3.24997 1.55574 3.94523 1.55574 4.82345C1.55574 5.72779 2.22473 6.39691 3.13226 6.39691Z" fill="black"/>
<path d="M8.22259 9.99868C7.84396 9.99868 7.54321 9.69547 7.54321 9.31388C7.54321 8.93229 7.84396 8.62909 8.22259 8.62909C8.60114 8.62909 8.90193 8.93229 8.90193 9.31388C8.90193 9.69547 8.60114 9.99868 8.22259 9.99868ZM8.22259 6.18784C7.84396 6.18784 7.54321 5.88987 7.54321 5.50304C7.54321 5.12144 7.84396 4.81824 8.22259 4.81824C8.60114 4.81824 8.90193 5.12144 8.90193 5.50304C8.90193 5.88987 8.60114 6.18784 8.22259 6.18784Z" fill="black"/>
<path d="M14.0004 9.94121V8.45141H10.2562V7.42678C10.8992 6.20878 11.7497 4.85486 13.4352 2.39795H15.1154V7.46861H16.1422V8.45141H15.1154V9.94121H14.0004ZM11.34 7.45815V7.48429H14.0108V3.30231H13.99C12.6935 5.18942 11.9364 6.36561 11.34 7.45815ZM18.9114 9.94121V3.55845H18.8855L16.9304 4.95942V3.80937L18.901 2.39795H20.0472V9.94121H18.9114Z" fill="black"/>
<defs>
<clipPath id="clip0_57_33">
<rect width="58" height="10" fill="white" transform="translate(191 3)"/>
</clipPath>
</defs>
</svg>
